<svg width="48" height="48" viewBox="0 0 48 48" fill="none" xmlns="http://www.w3.org/2000/svg">
<g clip-path="url(#clip0_111_7)">
<path d="M33.6 46.4H32C31.9994 46.7169 32.093 47.0268 32.2687 47.2904C32.4445 47.5541 32.6946 47.7596 32.9873 47.8809C33.28 48.0022 33.6022 48.0339 33.9129 47.972C34.2237 47.91 34.509 47.7571 34.7328 47.5328L33.6 46.4ZM33.6 33.6V32C33.1757 32 32.7687 32.1686 32.4686 32.4686C32.1686 32.7687 32 33.1757 32 33.6H33.6ZM46.4 33.6L47.5328 34.7328C47.7571 34.509 47.91 34.2237 47.972 33.9129C48.0339 33.6022 48.0022 33.28 47.8809 32.9873C47.7596 32.6946 47.5541 32.4445 47.2904 32.2687C47.0268 32.093 46.7169 31.9994 46.4 32V33.6ZM4.8 3.2H43.2V0H4.8V3.2ZM3.2 43.2V4.8H0V43.2H3.2ZM44.8 4.8V32.2752H48V4.8H44.8ZM32.2752 44.8H4.8V48H32.2752V44.8ZM44.3328 33.408L33.4048 44.3328L35.6672 46.5952L46.5952 35.6672L44.3328 33.4048V33.408ZM32.2752 48C33.5478 47.9989 34.7679 47.4924 35.6672 46.592L33.4048 44.3328C33.1049 44.6319 32.6987 44.7999 32.2752 44.8V48V48ZM44.8 32.2752C44.7999 32.6987 44.6319 33.1049 44.3328 33.4048L46.5952 35.6672C47.4945 34.7674 47.9997 33.5474 48 32.2752H44.8ZM0 43.2C0 44.473 0.505713 45.6939 1.40589 46.5941C2.30606 47.4943 3.52696 48 4.8 48V44.8C4.37565 44.8 3.96869 44.6314 3.66863 44.3314C3.36857 44.0313 3.2 43.6243 3.2 43.2H0ZM43.2 3.2C43.6243 3.2 44.0313 3.36857 44.3314 3.66863C44.6314 3.96869 44.8 4.37565 44.8 4.8H48C48 3.52696 47.4943 2.30606 46.5941 1.40589C45.6939 0.505713 44.473 0 43.2 0V3.2ZM4.8 0C3.52696 0 2.30606 0.505713 1.40589 1.40589C0.505713 2.30606 0 3.52696 0 4.8H3.2C3.2 4.37565 3.36857 3.96869 3.66863 3.66863C3.96869 3.36857 4.37565 3.2 4.8 3.2V0ZM35.2 46.4V33.6H32V46.4H35.2ZM33.6 35.2H46.4V32H33.6V35.2ZM45.2672 32.4672L32.4672 45.2672L34.7328 47.5328L47.5328 34.7328L45.2672 32.4672ZM9.6 12.8H38.4V9.6H9.6V12.8Z" fill="#6B6B6B"/>
</g>
<defs>
<clipPath id="clip0_111_7">
<rect width="48" height="48" fill="white"/>
</clipPath>
</defs>
</svg>
